<svg width="20" height="24" viewBox="0 0 20 24" fill="none" xmlns="http://www.w3.org/2000/svg">
<path d="M13.0577 3.77946C13.8711 2.76205 14.4231 1.39597 14.2775 0C13.0868 0.0592082 11.6337 0.785565 10.7925 1.80377C10.0371 2.67571 9.36858 4.09899 9.54287 5.43644C10.8795 5.55239 12.2149 4.76832 13.0577 3.77946Z" fill="#000D08"/>
<path d="M14.2623 5.69769C12.3212 5.58206 10.6707 6.79938 9.74374 6.79938C8.81623 6.79938 7.3967 5.75595 5.86136 5.78408C3.86301 5.81343 2.00878 6.94331 0.994704 8.74035C-1.09108 12.3353 0.444268 17.6679 2.47258 20.5958C3.45757 22.0443 4.64466 23.6392 6.20882 23.582C7.6867 23.524 8.26596 22.625 10.0624 22.625C11.8575 22.625 12.3793 23.5819 13.9437 23.553C15.566 23.524 16.5803 22.1037 17.5653 20.6538C18.6952 19.0025 19.1578 17.4081 19.1869 17.3206C19.1578 17.2916 16.0586 16.1027 16.0298 12.5376C16.0006 9.5525 18.4631 8.13262 18.579 8.04456C17.1884 5.98786 15.0156 5.75595 14.2623 5.69769Z" fill="#000D08"/>
</svg>
