<svg preserveAspectRatio="none" width="100%" height="100%" overflow="visible" style="display: block;" viewBox="0 0 20.0083 20.0083" fill="none" xmlns="http://www.w3.org/2000/svg">
<g id="Group">
<path id="Path" fill-rule="evenodd" clip-rule="evenodd" d="M14.5886 14.4712C15.4614 14.4712 16.1698 13.7651 16.1726 12.8922V12.8922V12.8922C16.172 12.4481 15.9947 12.0225 15.6799 11.7092L14.6303 10.6588V7.53834C14.63 6.31181 14.1423 5.13566 13.2745 4.26892C12.4066 3.40217 11.2299 2.91592 10.0033 2.91725V2.91725C7.45202 2.91863 5.38437 4.98703 5.38391 7.53834V10.6563L4.33431 11.7067C4.01921 12.0199 3.84163 12.4455 3.84077 12.8897V12.8897V12.8897C3.84353 13.7626 4.5519 14.4687 5.42476 14.4687L14.5886 14.4712Z" stroke="var(--stroke-0, #CFE6DD)" stroke-linecap="round" stroke-linejoin="round"/>
<path id="Path_2" d="M8.77032 17.0898H11.2355" stroke="var(--stroke-0, #CFE6DD)" stroke-linecap="round" stroke-linejoin="round"/>
<g id="Path_3">
</g>
</g>
</svg>
