<svg width="32" height="32" viewBox="0 0 32 32" fill="none" xmlns="http://www.w3.org/2000/svg">
<path d="M29.8667 16.0001C29.8667 23.8548 23.4992 30.2223 15.6445 30.2223C7.78975 30.2223 1.42225 23.8548 1.42225 16.0001C1.42225 8.14534 7.78975 1.77783 15.6445 1.77783C23.4992 1.77783 29.8667 8.14534 29.8667 16.0001Z" fill="#6EA644"/>
<path d="M16 7.46672L27.7334 16.0001L16 24.5334L4.26669 16.0001L16 7.46672Z" fill="#FFDB44"/>
<path d="M20.9778 16.0001C20.9778 18.7492 18.7492 20.9778 16 20.9778C13.2509 20.9778 11.0222 18.7492 11.0222 16.0001C11.0222 13.2509 13.2509 11.0223 16 11.0223C18.7492 11.0223 20.9778 13.2509 20.9778 16.0001Z" fill="#0051B5"/>
<path d="M11.5013 13.8667C11.1941 14.5133 11.0222 15.2366 11.0222 16.0001C16.1422 15.1467 19.1112 17.6593 19.9557 19.0223C20.4607 18.3623 20.8042 17.5723 20.9274 16.7112C18.083 13.8667 13.4581 13.6297 11.5013 13.8667Z" fill="white"/>
</svg>
