<svg preserveAspectRatio="none" width="100%" height="100%" overflow="visible" style="display: block;" viewBox="0 0 20 20" fill="none" xmlns="http://www.w3.org/2000/svg">
<g id="Group">
<g id="Path">
</g>
<path id="Path_2" d="M7.7975 14.1667V7.44507" stroke="var(--stroke-0, white)" stroke-linecap="round" stroke-linejoin="round"/>
<path id="Path_3" d="M4.16667 7.44507V14.1667" stroke="var(--stroke-0, white)" stroke-linecap="round" stroke-linejoin="round"/>
<path id="Path_4" d="M9.16667 14.1669H3.33333L2.5 15.8335V16.6669H9.16667" stroke="var(--stroke-0, white)" stroke-linecap="round" stroke-linejoin="round"/>
<path id="Path_5" fill-rule="evenodd" clip-rule="evenodd" d="M17.5 4.9402L10 1.66687L2.5 4.9402V7.4452H17.5V4.9402V4.9402Z" stroke="var(--stroke-0, white)" stroke-linecap="round" stroke-linejoin="round"/>
<path id="Path_6" d="M17.4992 16.25L17.5001 11.25" stroke="var(--stroke-0, white)" stroke-linecap="round" stroke-linejoin="round"/>
<path id="Path_7" d="M11.6667 11.25V16.25" stroke="var(--stroke-0, white)" stroke-linecap="round" stroke-linejoin="round"/>
<path id="Path_8" d="M17.5001 11.25C17.5001 10.5589 16.1934 10 14.5834 10C12.9734 10 11.6676 10.5598 11.6667 11.25" stroke="var(--stroke-0, white)" stroke-linecap="round" stroke-linejoin="round"/>
<path id="Path_9" d="M11.6667 16.25C11.6667 16.9411 12.9734 17.5 14.5834 17.5C16.1934 17.5 17.4992 16.9402 17.5001 16.25" stroke="var(--stroke-0, white)" stroke-linecap="round" stroke-linejoin="round"/>
<path id="Path_10" d="M11.6667 11.25C11.6667 11.9411 12.9734 12.5 14.5834 12.5C16.1934 12.5 17.4992 11.9402 17.5001 11.25" stroke="var(--stroke-0, white)" stroke-linecap="round" stroke-linejoin="round"/>
<path id="Path_11" d="M11.6667 13.75C11.6667 14.4411 12.9734 15 14.5834 15C16.1934 15 17.4992 14.4402 17.5001 13.75" stroke="var(--stroke-0, white)" stroke-linecap="round" stroke-linejoin="round"/>
</g>
</svg>
