<svg width="16" height="16" viewBox="0 0 16 16" fill="none" xmlns="http://www.w3.org/2000/svg">
<path d="M9.41468 6.5865C10.1953 7.36717 10.1953 8.6345 9.41468 9.4165C8.63401 10.1972 7.36668 10.1972 6.58468 9.4165C5.80401 8.63583 5.80401 7.3685 6.58468 6.5865C7.36668 5.8045 8.63334 5.8045 9.41468 6.5865" stroke="#0B261C" stroke-linecap="round" stroke-linejoin="round"/>
<path fill-rule="evenodd" clip-rule="evenodd" d="M2 7.99992C2 7.56059 2.10133 7.12592 2.29733 6.72525V6.72525C3.30733 4.66059 5.53933 3.33325 8 3.33325C10.4607 3.33325 12.6927 4.66059 13.7027 6.72525V6.72525C13.8987 7.12592 14 7.56059 14 7.99992C14 8.43925 13.8987 8.87392 13.7027 9.27458V9.27458C12.6927 11.3393 10.4607 12.6666 8 12.6666C5.53933 12.6666 3.30733 11.3393 2.29733 9.27458V9.27458C2.10133 8.87392 2 8.43925 2 7.99992Z" stroke="#0B261C" stroke-linecap="round" stroke-linejoin="round"/>
</svg>
