<svg width="20" height="21" viewBox="0 0 20 21" fill="none" xmlns="http://www.w3.org/2000/svg">
<path d="M19.7504 10.2456C19.7504 9.51343 19.6844 8.81284 19.562 8.13916H10.0854V11.9988L15.5432 12C15.3218 13.2842 14.6094 14.3789 13.5178 15.1087V17.6128H16.7666C18.6635 15.869 19.7504 13.2912 19.7504 10.2456Z" fill="#4285F4"/>
<path d="M13.519 15.1088C12.6147 15.7146 11.4501 16.069 10.0877 16.069C7.45601 16.069 5.22345 14.3076 4.42392 11.9333H1.07274V14.5158C2.73302 17.7883 6.14544 20.0339 10.0877 20.0339C12.8125 20.0339 15.1016 19.1439 16.7677 17.6117L13.519 15.1088Z" fill="#34A853"/>
<path d="M4.10834 10.0175C4.10834 9.35081 4.2202 8.70637 4.42391 8.10052V5.51807H1.07272C0.386236 6.87128 1.52588e-05 8.39877 1.52588e-05 10.0175C1.52588e-05 11.6362 0.387413 13.1637 1.07272 14.5169L4.42391 11.9344C4.2202 11.3286 4.10834 10.6841 4.10834 10.0175Z" fill="#FABB05"/>
<path d="M10.0877 3.96491C11.5749 3.96491 12.9067 4.47368 13.9582 5.46783L16.8372 2.61052C15.0886 0.992982 12.809 0 10.0877 0C6.14662 0 2.73302 2.24561 1.07274 5.51812L4.42392 8.10058C5.22345 5.72631 7.45601 3.96491 10.0877 3.96491Z" fill="#E94235"/>
</svg>
