<svg preserveAspectRatio="none" width="100%" height="100%" overflow="visible" style="display: block;" viewBox="0 0 19.7504 20.0339" fill="none" xmlns="http://www.w3.org/2000/svg">
<g id="G Mark 1">
<path id="Blue 500" d="M19.7504 10.2456C19.7504 9.51341 19.6844 8.81283 19.562 8.13914H10.0854V11.9988L15.5432 12C15.3218 13.2842 14.6094 14.3789 13.5178 15.1087V17.6128H16.7666C18.6635 15.869 19.7504 13.2912 19.7504 10.2456Z" fill="var(--fill-0, #4285F4)"/>
<path id="Green 500 1" d="M13.519 15.1088C12.6147 15.7146 11.4501 16.069 10.0877 16.069C7.456 16.069 5.22345 14.3076 4.42392 11.9333H1.07274V14.5158C2.73302 17.7883 6.14544 20.0339 10.0877 20.0339C12.8125 20.0339 15.1016 19.1439 16.7677 17.6117L13.519 15.1088Z" fill="var(--fill-0, #34A853)"/>
<path id="Yellow 500 1" d="M4.10833 10.0176C4.10833 9.3509 4.2202 8.70645 4.4239 8.10061V5.51815H1.07272C0.386233 6.87137 1.24191e-05 8.39885 1.24191e-05 10.0176C1.24191e-05 11.6363 0.387411 13.1638 1.07272 14.517L4.4239 11.9345C4.2202 11.3287 4.10833 10.6842 4.10833 10.0176Z" fill="var(--fill-0, #FABB05)"/>
<path id="Red 500" d="M10.0877 3.96493C11.5749 3.96493 12.9067 4.4737 13.9582 5.46786L16.8372 2.61055C15.0886 0.993007 12.8089 2.47955e-05 10.0877 2.47955e-05C6.14661 2.47955e-05 2.73302 2.24564 1.07274 5.51815L4.42392 8.1006C5.22345 5.72634 7.456 3.96493 10.0877 3.96493Z" fill="var(--fill-0, #E94235)"/>
</g>
</svg>
