<svg width="32" height="32" viewBox="0 0 32 32" fill="none" xmlns="http://www.w3.org/2000/svg">
<path d="M15.6444 30.2223C7.78972 30.2223 1.42221 23.8548 1.42221 16.0001C1.42221 8.14534 7.78972 1.77783 15.6444 1.77783C23.4992 1.77783 29.8667 8.14534 29.8667 16.0001C29.8667 23.8548 23.4992 30.2223 15.6444 30.2223Z" fill="#FFDB44"/>
<path d="M28.9712 11.0223C26.9535 5.62257 21.7479 1.77783 15.6444 1.77783C9.54093 1.77783 4.33541 5.62257 2.31765 11.0223L28.9712 11.0223Z" fill="#D90026"/>
<path d="M2.31765 20.9778C4.33541 26.3775 9.54093 30.2223 15.6444 30.2223C21.7479 30.2223 26.9535 26.3775 28.9712 20.9778L2.31765 20.9778Z" fill="#D90026"/>
</svg>
