<svg preserveAspectRatio="none" width="100%" height="100%" overflow="visible" style="display: block;" viewBox="0 0 16 16" fill="none" xmlns="http://www.w3.org/2000/svg">
<g id="Group">
<g id="Path">
</g>
<path id="Path_2" d="M6.238 11.3333V5.956" stroke="var(--stroke-0, #6D7371)" stroke-linecap="round" stroke-linejoin="round"/>
<path id="Path_3" d="M3.33333 5.956V11.3333" stroke="var(--stroke-0, #6D7371)" stroke-linecap="round" stroke-linejoin="round"/>
<path id="Path_4" d="M7.33333 11.3333H2.66667L2 12.6667V13.3333H7.33333" stroke="var(--stroke-0, #6D7371)" stroke-linecap="round" stroke-linejoin="round"/>
<path id="Path_5" fill-rule="evenodd" clip-rule="evenodd" d="M14 3.952L8 1.33333L2 3.952V5.956H14V3.952V3.952Z" stroke="var(--stroke-0, #6D7371)" stroke-linecap="round" stroke-linejoin="round"/>
<path id="Path_6" d="M13.9993 13L14 9" stroke="var(--stroke-0, #6D7371)" stroke-linecap="round" stroke-linejoin="round"/>
<path id="Path_7" d="M9.33333 9V13" stroke="var(--stroke-0, #6D7371)" stroke-linecap="round" stroke-linejoin="round"/>
<path id="Path_8" d="M14 9C14 8.44714 12.9547 8 11.6667 8C10.3787 8 9.334 8.44786 9.33333 9" stroke="var(--stroke-0, #6D7371)" stroke-linecap="round" stroke-linejoin="round"/>
<path id="Path_9" d="M9.33333 13C9.33333 13.5529 10.3787 14 11.6667 14C12.9547 14 13.9993 13.5521 14 13" stroke="var(--stroke-0, #6D7371)" stroke-linecap="round" stroke-linejoin="round"/>
<path id="Path_10" d="M9.33333 9C9.33333 9.55286 10.3787 10 11.6667 10C12.9547 10 13.9993 9.55214 14 9" stroke="var(--stroke-0, #6D7371)" stroke-linecap="round" stroke-linejoin="round"/>
<path id="Path_11" d="M9.33333 11C9.33333 11.5529 10.3787 12 11.6667 12C12.9547 12 13.9993 11.5521 14 11" stroke="var(--stroke-0, #6D7371)" stroke-linecap="round" stroke-linejoin="round"/>
</g>
</svg>
