<svg preserveAspectRatio="none" width="100%" height="100%" overflow="visible" style="display: block;" viewBox="0 0 89.3338 31.4667" fill="none" xmlns="http://www.w3.org/2000/svg">
<g id="zarp">
<path id="Vector" d="M64.0719 0.649072H70.3468V4.81431H70.455C71.0681 3.3718 72.0778 2.2178 73.4843 1.35229C74.9268 0.48679 76.6037 0.0540365 78.515 0.0540365C81.8688 0.0540365 84.5014 1.19001 86.4127 3.46196C88.3601 5.73391 89.3338 8.8353 89.3338 12.7661C89.3338 16.6248 88.3782 19.7082 86.4668 22.0162C84.5555 24.2882 81.941 25.4241 78.6232 25.4241C76.8201 25.4241 75.1612 24.9914 73.6465 24.1259C72.168 23.2604 71.1041 22.0883 70.455 20.6098H70.3468V31.4666H64.0719L64.0719 0.649072ZM72.186 6.86989C71.032 8.24027 70.455 10.2057 70.455 12.7661C70.455 15.3266 71.05 17.292 72.2401 18.6624C73.4302 20.0328 75.053 20.718 77.1086 20.718C78.9838 20.718 80.4624 20.0147 81.5443 18.6083C82.6622 17.1658 83.2212 15.2184 83.2212 12.7661C83.2212 10.2418 82.6622 8.27633 81.5443 6.86989C80.4263 5.46344 78.9117 4.76022 77.0004 4.76022C74.9809 4.76022 73.3761 5.46344 72.186 6.86989Z" fill="var(--fill-0, #080D00)"/>
<path id="Vector_2" d="M46.8274 0.595028H53.1023V5.46349H53.2646C53.7334 3.76855 54.7612 2.43423 56.348 1.46053C57.9708 0.450779 59.9002 -0.018038 62.1361 0.0540875V5.13893C59.5035 5.03074 57.3397 5.62577 55.6448 6.92403C53.9498 8.22229 53.1023 10.4942 53.1023 13.7399V24.8833H46.8274V0.595028Z" fill="var(--fill-0, #080D00)"/>
<path id="Vector_3" d="M28.6135 5.08484C27.3514 5.66184 26.2154 6.50932 25.2056 7.62726L22.7714 3.94886C24.1057 2.68667 25.5302 1.71298 27.0448 1.02779C28.5955 0.342596 30.7052 0 33.3738 0C36.7637 0 39.3602 0.739286 41.1634 2.21786C42.9665 3.66036 43.8681 5.89625 43.8681 8.92552V24.8833H37.9177L37.4309 20.7721H37.3227C36.2769 23.8735 33.6804 25.4242 29.5331 25.4242C23.9074 25.4242 21.0945 23.1342 21.0945 18.5543C21.0945 16.0659 22.0682 14.1907 24.0156 12.9285C25.9629 11.6302 28.3431 10.8188 31.156 10.4942C32.5624 10.35 33.7885 10.2779 34.8344 10.2779C35.9162 10.2418 36.7637 10.2238 37.3768 10.2238C37.3768 8.24033 36.9621 6.74372 36.1326 5.73397C35.3392 4.72421 34.059 4.21934 32.2919 4.21934C31.1379 4.21934 29.9118 4.50784 28.6135 5.08484ZM37.4309 15.3627V13.4694C35.8441 13.3973 34.2033 13.4694 32.5083 13.6858C28.8299 14.2628 27.0448 15.7774 27.153 18.2297C27.153 19.3476 27.5497 20.141 28.3431 20.6098C29.1725 21.0786 30.1642 21.3131 31.3182 21.3131C32.9771 21.3131 34.4016 20.8082 35.5917 19.7984C36.8178 18.7887 37.4309 17.3101 37.4309 15.3627Z" fill="var(--fill-0, #080D00)"/>
<path id="Vector_4" d="M0.865505 0.649089H19.4739V4.38158L7.2486 20.6098V20.718H20.0689V24.8832H0V20.9884L12.1171 4.86842V4.76024H0.865505V0.649089Z" fill="var(--fill-0, #080D00)"/>
</g>
</svg>
