<svg width="32" height="32" viewBox="0 0 32 32" fill="none" xmlns="http://www.w3.org/2000/svg">
<circle cx="15.6444" cy="16.0001" r="14.2222" fill="#F2F0F2"/>
<mask id="mask0_1151_1175" style="mask-type:alpha" maskUnits="userSpaceOnUse" x="1" y="1" width="29" height="30">
<circle cx="15.6444" cy="16.0001" r="14.2222" fill="#FCFCFC"/>
</mask>
<g mask="url(#mask0_1151_1175)">
<rect x="6.04443" y="27.0222" width="19.5556" height="3.55556" fill="#D90026"/>
<rect x="6.04443" y="27.0222" width="19.5556" height="3.55556" fill="#D90026"/>
<rect x="1.77776" y="19.9111" width="28.0889" height="3.55556" fill="#D90026"/>
<rect x="1.77776" y="19.9111" width="28.0889" height="3.55556" fill="#D90026"/>
<rect x="1.77776" y="12.4445" width="28.0889" height="3.55556" fill="#D90026"/>
<rect x="1.77776" y="12.4445" width="28.0889" height="3.55556" fill="#D90026"/>
<rect x="1.77776" y="5.33337" width="28.0889" height="3.55556" fill="#D90026"/>
<rect x="1.77776" y="5.33337" width="28.0889" height="3.55556" fill="#D90026"/>
<rect x="1.42223" y="1.77783" width="14.5778" height="14.2222" fill="#0052B5"/>
<path d="M13.1555 13.6889L12.0889 14.2223L12.4444 13.1556L11.7333 12.4445H12.8L13.1555 11.3778L13.6889 12.4445H14.5778L13.8667 13.1556L14.2222 14.2223L13.1555 13.6889Z" fill="#EFEFEF"/>
<path d="M8.17776 13.6889L7.11109 14.2223L7.46665 13.1556L6.75554 12.4445H7.82221L8.17776 11.3778L8.71109 12.4445H9.59998L8.88887 13.1556L9.24443 14.2223L8.17776 13.6889Z" fill="#EFEFEF"/>
<path d="M3.19999 13.6889L2.13332 14.2223L2.48887 13.1556L1.77776 12.4445H2.84443L3.19999 11.3778L3.73332 12.4445H4.62221L3.9111 13.1556L4.26665 14.2223L3.19999 13.6889Z" fill="#EFEFEF"/>
<path d="M13.1555 9.77779L12.0889 10.3111L12.4444 9.24445L11.7333 8.53334H12.8L13.1555 7.46667L13.6889 8.53334H14.5778L13.8667 9.24445L14.2222 10.3111L13.1555 9.77779Z" fill="#EFEFEF"/>
<path d="M13.1555 5.86665L12.0889 6.39999L12.4444 5.33332L11.7333 4.62221H12.8L13.1555 3.55554L13.6889 4.62221H14.5778L13.8667 5.33332L14.2222 6.39999L13.1555 5.86665Z" fill="#EFEFEF"/>
<path d="M13.1555 1.95552L12.0889 2.48885L12.4444 1.42219L11.7333 0.711076H12.8L13.1555 -0.355591L13.6889 0.711076H14.5778L13.8667 1.42219L14.2222 2.48885L13.1555 1.95552Z" fill="#EFEFEF"/>
<path d="M8.17776 5.86665L7.11109 6.39999L7.46665 5.33332L6.75554 4.62221H7.82221L8.17776 3.55554L8.71109 4.62221H9.59998L8.88887 5.33332L9.24443 6.39999L8.17776 5.86665Z" fill="#EFEFEF"/>
<path d="M8.17776 9.77779L7.11109 10.3111L7.46665 9.24445L6.75554 8.53334H7.82221L8.17776 7.46667L8.71109 8.53334H9.59998L8.88887 9.24445L9.24443 10.3111L8.17776 9.77779Z" fill="#EFEFEF"/>
<path d="M3.19999 9.77779L2.13332 10.3111L2.48887 9.24445L1.77776 8.53334H2.84443L3.19999 7.46667L3.73332 8.53334H4.62221L3.9111 9.24445L4.26665 10.3111L3.19999 9.77779Z" fill="#EFEFEF"/>
</g>
</svg>
