<svg width="32" height="32" viewBox="0 0 32 32" fill="none" xmlns="http://www.w3.org/2000/svg">
<path d="M16 30.2223C8.14529 30.2223 1.77778 23.8548 1.77778 16.0001C1.77778 8.14534 8.14529 1.77783 16 1.77783C23.8547 1.77783 30.2222 8.14534 30.2222 16.0001C30.2222 23.8548 23.8547 30.2223 16 30.2223Z" fill="white"/>
<path d="M28.4207 9.06672C25.9879 4.71784 21.3373 1.77783 16 1.77783C10.6627 1.77783 6.01212 4.71784 3.57933 9.06672L28.4207 9.06672Z" fill="#338AF3"/>
<path d="M28.4207 9.06672C25.9879 4.71784 21.3373 1.77783 16 1.77783C10.6627 1.77783 6.01212 4.71784 3.57933 9.06672L28.4207 9.06672Z" fill="#338AF3"/>
<path d="M3.57933 23.1111C6.01212 27.46 10.6627 30.4 16 30.4C21.3373 30.4 25.9879 27.46 28.4207 23.1111L3.57933 23.1111Z" fill="#338AF3"/>
<path d="M3.57933 23.1111C6.01212 27.46 10.6627 30.4 16 30.4C21.3373 30.4 25.9879 27.46 28.4207 23.1111L3.57933 23.1111Z" fill="#338AF3"/>
<path d="M15.8222 12.9778L14.4 11.5555L14.0445 13.5111L11.9111 13.3333L12.8 15.1111L11.0222 16L12.8 16.8889L12.0889 18.6667L14.0445 18.4889L14.4 20.6222L15.8222 19.0222L17.2445 20.6222L17.6 18.4889L19.5556 18.6667L18.8445 16.8889L20.6222 16L18.6667 15.1111L19.5556 13.3333L17.6 13.5111L17.2445 11.5555L15.8222 12.9778Z" fill="#FFDA44"/>
</svg>
