<svg width="20" height="20" viewBox="0 0 20 20" fill="none" xmlns="http://www.w3.org/2000/svg">
<path fill-rule="evenodd" clip-rule="evenodd" d="M12.0833 16.6667V12.0833C12.0833 11.6231 11.7102 11.25 11.25 11.25H8.75C8.28976 11.25 7.91667 11.6231 7.91667 12.0833V16.6667C7.91667 17.1269 7.54357 17.5 7.08333 17.5H3.75C3.05964 17.5 2.5 16.9404 2.5 16.25V8.72903C2.5 8.21629 2.736 7.73209 3.13988 7.41621L8.97322 2.85386C9.57645 2.38205 10.4236 2.38205 11.0268 2.85386L16.8601 7.41619C17.264 7.73208 17.5 8.21628 17.5 8.72902V16.25C17.5 16.9404 16.9404 17.5 16.25 17.5H12.9167C12.4564 17.5 12.0833 17.1269 12.0833 16.6667Z" stroke="#FF6600" stroke-linecap="round" stroke-linejoin="round"/>
</svg>
