<svg width="127" height="34" viewBox="0 0 127 34" fill="none" xmlns="http://www.w3.org/2000/svg">
<path d="M16 32C24.8366 32 32 24.8366 32 16C32 7.16344 24.8366 0 16 0C7.16344 0 0 7.16344 0 16C0 24.8366 7.16344 32 16 32Z" fill="#FF6600"/>
<path opacity="0.92" d="M26.9474 30.3159C29.9704 30.3159 32.421 23.9065 32.421 16.0001C32.421 8.09372 29.9704 1.68433 26.9474 1.68433C23.9243 1.68433 21.4737 8.09372 21.4737 16.0001C21.4737 23.9065 23.9243 30.3159 26.9474 30.3159Z" fill="white"/>
<path d="M100.872 2.78229H107.147V6.94753H107.255C107.868 5.50502 108.878 4.35102 110.284 3.48551C111.727 2.62001 113.404 2.18726 115.315 2.18726C118.669 2.18726 121.301 3.32323 123.213 5.59518C125.16 7.86713 126.134 10.9685 126.134 14.8994C126.134 18.7581 125.178 21.8414 123.267 24.1494C121.356 26.4214 118.741 27.5574 115.423 27.5574C113.62 27.5574 111.961 27.1246 110.447 26.2591C108.968 25.3936 107.904 24.2216 107.255 22.743H107.147V33.5998H100.872L100.872 2.78229ZM108.986 9.00311C107.832 10.3735 107.255 12.3389 107.255 14.8994C107.255 17.4598 107.85 19.4252 109.04 20.7956C110.23 22.166 111.853 22.8512 113.909 22.8512C115.784 22.8512 117.262 22.148 118.344 20.7415C119.462 19.299 120.021 17.3516 120.021 14.8994C120.021 12.375 119.462 10.4096 118.344 9.00311C117.226 7.59666 115.712 6.89344 113.8 6.89344C111.781 6.89344 110.176 7.59666 108.986 9.00311Z" fill="#080D00"/>
<path d="M83.6274 2.72833H89.9023V7.59679H90.0646C90.5334 5.90185 91.5612 4.56753 93.148 3.59383C94.7708 2.58408 96.7002 2.11526 98.9361 2.18739V7.27223C96.3035 7.16404 94.1397 7.75908 92.4448 9.05733C90.7498 10.3556 89.9023 12.6275 89.9023 15.8732V27.0166H83.6274V2.72833Z" fill="#080D00"/>
<path d="M65.4135 7.21814C64.1513 7.79514 63.0154 8.64262 62.0056 9.76056L59.5714 6.08217C60.9057 4.81997 62.3302 3.84628 63.8448 3.16109C65.3955 2.4759 67.5052 2.1333 70.1738 2.1333C73.5637 2.1333 76.1602 2.87259 77.9634 4.35116C79.7665 5.79366 80.6681 8.02955 80.6681 11.0588V27.0166H74.7177L74.2309 22.9054H74.1227C73.0769 26.0068 70.4804 27.5575 66.3331 27.5575C60.7074 27.5575 57.8945 25.2675 57.8945 20.6876C57.8945 18.1992 58.8682 16.324 60.8155 15.0618C62.7629 13.7635 65.1431 12.9521 67.956 12.6275C69.3624 12.4833 70.5885 12.4112 71.6344 12.4112C72.7162 12.3751 73.5637 12.3571 74.1768 12.3571C74.1768 10.3736 73.7621 8.87702 72.9326 7.86727C72.1392 6.85751 70.859 6.35264 69.0919 6.35264C67.9379 6.35264 66.7118 6.64114 65.4135 7.21814ZM74.2309 17.496V15.6027C72.6441 15.5306 71.0033 15.6027 69.3083 15.8191C65.6299 16.3961 63.8448 17.9107 63.953 20.363C63.953 21.4809 64.3497 22.2743 65.1431 22.7431C65.9725 23.2119 66.9642 23.4464 68.1182 23.4464C69.7771 23.4464 71.2016 22.9415 72.3917 21.9317C73.6178 20.922 74.2309 19.4434 74.2309 17.496Z" fill="#080D00"/>
<path d="M37.6655 2.78247H56.2739V6.51496L44.0486 22.7432V22.8514H56.8689V27.0166H36.8V23.1218L48.9171 7.00181V6.89362H37.6655V2.78247Z" fill="#080D00"/>
</svg>
